# xmcd
#
# Track frame offsets: 
#        150
#        20275
#        38887
#        61145
#
# Disc length: 1081 seconds
#
# Revision: 11
# Processed by: cddbd v1.5.2PL0 Copyright (c) Steve Scherf et al.
# Submitted via: ExactAudioCopy v1.0b3
#
DISCID=27043704
DTITLE=倉木麻衣 - Stay by my side
DYEAR=2000
DGENRE=J-POP
TTITLE0=Stay by my side
TTITLE1=Just Like You Smile Baby
TTITLE2=Love, Day After Tomorrow 〜Day Tripper Drum'n' Bass Mix
TTITLE3=Stay by my side 〜Instrumental〜
EXTD=YEAR: 2000
EXTT0=
EXTT1=
EXTT2=
EXTT3=
PLAYORDER=
